<?xml version="1.0" encoding="utf-8"?>
<!-- Generator: Adobe Illustrator 27.5.0, SVG Export Plug-In . SVG Version: 6.00 Build 0)  -->
<svg version="1.1" xmlns="http://www.w3.org/2000/svg" xmlns:xlink="http://www.w3.org/1999/xlink" x="0px" y="0px"
	 viewBox="0 0 500 500" style="enable-background:new 0 0 500 500;" xml:space="preserve">
<g id="BACKGROUND">
	<linearGradient id="SVGID_1_" gradientUnits="userSpaceOnUse" x1="427.7805" y1="427.7805" x2="79.7515" y2="79.7515">
		<stop  offset="0.0826" style="stop-color:#E9FAFF"/>
		<stop  offset="1" style="stop-color:#FFFFFF"/>
	</linearGradient>
	<rect style="fill:url(#SVGID_1_);" width="500" height="500"/>
</g>
<g id="OBJECTS">
	<g>
		<g>
			
				<linearGradient id="SVGID_00000053538569842560817330000000841030767747080638_" gradientUnits="userSpaceOnUse" x1="113.0535" y1="132.1744" x2="331.941" y2="351.0619">
				<stop  offset="0.0684" style="stop-color:#DCE9F9"/>
				<stop  offset="1" style="stop-color:#C6DDF4"/>
			</linearGradient>
			<path style="fill:url(#SVGID_00000053538569842560817330000000841030767747080638_);" d="M458.414,264.814
				c-2.475-31.018-19.446-50.189-38.066-61.908c-27.781-17.484-47.992-44.51-58.866-75.482
				c-9.12-25.975-28.509-50.758-67.772-50.758c-33.116,0-61.679,19.36-74.297,47.604c-3.738,8.367-11.454,14.248-20.497,15.737
				c-0.123,0.02-0.245,0.041-0.368,0.061c-7.108,1.188-14.447-0.465-20.282-4.693c-13.14-9.52-29.403-14.992-46.963-14.581
				c-40.64,0.951-73.852,33.89-75.118,74.522c-0.239,7.662,0.643,15.082,2.494,22.109c5.105,19.387,2.54,40.083-7.337,57.529
				c-6.534,11.542-10.175,24.937-9.935,39.202c0.69,41.082,51.471,23.356,92.548,24.314c0.408,0.01,0.815,0.016,1.221,0.019
				c12.052,0.094,22.93,6.875,28.758,17.423c13.116,23.737,2.911,84.423,50.049,91.153c9.788,1.397,19.338-1.863,28.022-5.258
				c22.934-8.965,48.155-10.979,71.845-4.263c7.57,2.146,15.596,3.208,23.899,3.006c42.071-1.021,76.519-34.977,78.123-77.03
				c0.025-0.668,0.043-1.334,0.052-1.998c0.2-14.533,6.554-28.285,17.155-38.229C448.672,308.67,460.249,287.807,458.414,264.814z"
				/>
			
				<linearGradient id="SVGID_00000019657045454936503390000017982869797861100422_" gradientUnits="userSpaceOnUse" x1="139.5091" y1="426.2855" x2="80.6284" y2="367.4048">
				<stop  offset="0.0684" style="stop-color:#DCE9F9"/>
				<stop  offset="1" style="stop-color:#C6DDF4"/>
			</linearGradient>
			<circle style="fill:url(#SVGID_00000019657045454936503390000017982869797861100422_);" cx="111.521" cy="398.298" r="42.47"/>
			
				<linearGradient id="SVGID_00000101793716642174627410000005383113852965438876_" gradientUnits="userSpaceOnUse" x1="203.9048" y1="100.9977" x2="170.4734" y2="67.5663">
				<stop  offset="0.0684" style="stop-color:#DCE9F9"/>
				<stop  offset="1" style="stop-color:#C6DDF4"/>
			</linearGradient>
			<circle style="fill:url(#SVGID_00000101793716642174627410000005383113852965438876_);" cx="188.014" cy="85.107" r="24.114"/>
			
				<linearGradient id="SVGID_00000016797939307195784840000004178551418834690227_" gradientUnits="userSpaceOnUse" x1="426.5433" y1="148.6894" x2="381.8266" y2="103.9727">
				<stop  offset="0.0684" style="stop-color:#DCE9F9"/>
				<stop  offset="1" style="stop-color:#C6DDF4"/>
			</linearGradient>
			<circle style="fill:url(#SVGID_00000016797939307195784840000004178551418834690227_);" cx="405.288" cy="127.434" r="32.254"/>
		</g>
		<g>
			<g>
				<g>
					<path style="fill:#0C5572;" d="M83.304,428.445l-0.902-0.392c8.024-18.47,25.423-36.809,47.736-50.313
						c23.717-14.356,50.126-21.292,70.645-18.554l-0.13,0.976c-20.306-2.709-46.473,4.177-70.006,18.42
						C108.504,391.984,91.249,410.158,83.304,428.445z"/>
					<path style="fill:#0C5572;" d="M82.76,427.919c0,0-12.23,16.34-6.205,32.987C76.555,460.906,85.644,454.982,82.76,427.919z"/>
					<path style="fill:#0C5572;" d="M90.489,414.996c0,0-2.834,17.817,8.734,28.354C99.224,443.349,103.892,434.973,90.489,414.996z
						"/>
					<path style="fill:#0C5572;" d="M89.708,415.246c0,0-18.004-1.153-27.411,11.353C62.297,426.599,71.074,430.462,89.708,415.246z
						"/>
					<path style="fill:#0C5572;" d="M102.079,399.386c0,0-5.655,20.617,6.601,34.533
						C108.68,433.918,115.269,424.659,102.079,399.386z"/>
					<path style="fill:#0C5572;" d="M101.126,399.58c0,0-21.056-3.699-33.762,9.808C67.364,409.387,77.199,415.079,101.126,399.58z"
						/>
					<path style="fill:#0C5572;" d="M118.915,385.128c0,0-9.649,21.835,1.589,39.226
						C120.503,424.353,129.308,415.216,118.915,385.128z"/>
					<path style="fill:#0C5572;" d="M117.83,385.184c0,0-22.643-7.561-38.904,5.257C78.926,390.441,88.848,398.351,117.83,385.184z"
						/>
					<path style="fill:#0C5572;" d="M141.301,371.512c0,0-15.378,21.03-7.451,42.192
						C133.85,413.704,145.367,406.015,141.301,371.512z"/>
					<path style="fill:#0C5572;" d="M140.132,371.32c0,0-22.379-13.34-42.705-3.465C97.427,367.855,106.162,378.601,140.132,371.32z
						"/>
					<path style="fill:#0C5572;" d="M164.464,362.517c0,0-16.947,23.176-8.211,46.497
						C156.253,409.014,168.945,400.54,164.464,362.517z"/>
					<path style="fill:#0C5572;" d="M165.929,362.857c0,0-21.652-18.855-45.632-12.133
						C120.297,350.724,127.662,364.091,165.929,362.857z"/>
				</g>
				<g>
					<path style="fill:#0C5572;" d="M423.845,112.757l0.915-0.361c7.386,18.734,8.051,44.004,1.823,69.331
						c-6.62,26.922-20.389,50.5-36.834,63.073l-0.599-0.782c16.274-12.443,29.908-35.815,36.477-62.526
						C431.808,156.359,431.159,131.306,423.845,112.757z"/>
					<path style="fill:#0C5572;" d="M424.603,112.745c0,0-2.906-20.202-18.938-27.713
						C405.664,85.032,403.426,95.648,424.603,112.745z"/>
					<path style="fill:#0C5572;" d="M428.275,127.348c0,0-10.594-14.603-26.225-13.873
						C402.05,113.475,404.671,122.7,428.275,127.348z"/>
					<path style="fill:#0C5572;" d="M428.65,126.618c0,0,13.546-11.916,11.355-27.41C440.005,99.209,431.067,102.683,428.65,126.618
						z"/>
					<path style="fill:#0C5572;" d="M431.118,146.581c0,0-10.58-18.577-29.086-19.751
						C402.031,126.831,403.92,138.037,431.118,146.581z"/>
					<path style="fill:#0C5572;" d="M431.654,145.77c0,0,17.504-12.274,16.938-30.809
						C448.593,114.962,437.613,117.892,431.654,145.77z"/>
					<path style="fill:#0C5572;" d="M429.295,168.568c0,0-8.616-22.262-28.86-26.613
						C400.435,141.955,400.67,154.641,429.295,168.568z"/>
					<path style="fill:#0C5572;" d="M430.022,167.761c0,0,21.357-10.664,23.792-31.227
						C453.814,136.534,441.205,137.957,430.022,167.761z"/>
					<path style="fill:#0C5572;" d="M423.093,194.025c0,0-3.997-25.745-24.566-35.103
						C398.527,158.922,395.82,172.503,423.093,194.025z"/>
					<path style="fill:#0C5572;" d="M424.056,193.334c0,0,25.257-6.391,32.647-27.747
						C456.703,165.588,442.928,164.165,424.056,193.334z"/>
					<path style="fill:#0C5572;" d="M413.075,216.764c0,0-4.404-28.372-27.072-38.685
						C386.003,178.079,383.02,193.046,413.075,216.764z"/>
					<path style="fill:#0C5572;" d="M411.799,217.56c0,0,28.643-1.978,40.845-23.687
						C452.645,193.872,437.985,189.629,411.799,217.56z"/>
				</g>
			</g>
			<g>
				<g>
					
						<linearGradient id="SVGID_00000163774283927353484270000009190334345770566332_" gradientUnits="userSpaceOnUse" x1="379.7036" y1="234.4163" x2="311.4889" y2="166.2015">
						<stop  offset="0" style="stop-color:#52B0F7"/>
						<stop  offset="1" style="stop-color:#7DDCF9"/>
					</linearGradient>
					<path style="fill:url(#SVGID_00000163774283927353484270000009190334345770566332_);" d="M368.427,218.948l-2.662-2.662
						c-1.61-1.61-3.794-2.515-6.071-2.515h-51.883c-6.671,0-12.078-5.408-12.078-12.078v-24.606c0-6.671,5.408-12.078,12.078-12.078
						h53.732c6.67,0,12.078,5.408,12.078,12.078v39.71C373.621,219.507,370.344,220.864,368.427,218.948z"/>
					<g>
						<path style="fill:#FFFFFF;" d="M319.941,189.865c0,0.989-0.802,1.791-1.791,1.791s-1.791-0.802-1.791-1.791
							c0-0.989,0.802-1.791,1.791-1.791S319.941,188.876,319.941,189.865z"/>
						<path style="fill:#FFFFFF;" d="M336.468,189.865c0,0.989-0.802,1.791-1.791,1.791s-1.791-0.802-1.791-1.791
							c0-0.989,0.802-1.791,1.791-1.791S336.468,188.876,336.468,189.865z"/>
						<path style="fill:#FFFFFF;" d="M352.995,189.865c0,0.989-0.802,1.791-1.791,1.791s-1.791-0.802-1.791-1.791
							c0-0.989,0.802-1.791,1.791-1.791S352.995,188.876,352.995,189.865z"/>
					</g>
				</g>
				<g>
					
						<linearGradient id="SVGID_00000027565305165717843940000004177161909872287381_" gradientUnits="userSpaceOnUse" x1="311.7721" y1="137.664" x2="234.4525" y2="60.3444">
						<stop  offset="0" style="stop-color:#FFBB12"/>
						<stop  offset="1" style="stop-color:#FF7212"/>
					</linearGradient>
					<path style="fill:url(#SVGID_00000027565305165717843940000004177161909872287381_);" d="M244.77,135.789l3.009-3.009
						c1.82-1.82,4.288-2.842,6.861-2.842h58.638c7.539,0,13.651-6.112,13.651-13.651v-27.81c0-7.539-6.112-13.651-13.651-13.651
						h-60.727c-7.539,0-13.651,6.112-13.651,13.651v44.881C238.901,136.421,242.604,137.955,244.77,135.789z"/>
					<g>
						<path style="fill:#FFFFFF;" d="M268.179,102.734c0,0.989-0.802,1.791-1.791,1.791c-0.989,0-1.791-0.802-1.791-1.791
							c0-0.989,0.802-1.791,1.791-1.791C267.377,100.943,268.179,101.745,268.179,102.734z"/>
						<path style="fill:#FFFFFF;" d="M284.706,102.734c0,0.989-0.802,1.791-1.791,1.791s-1.791-0.802-1.791-1.791
							c0-0.989,0.802-1.791,1.791-1.791S284.706,101.745,284.706,102.734z"/>
						<path style="fill:#FFFFFF;" d="M301.233,102.734c0,0.989-0.802,1.791-1.791,1.791s-1.791-0.802-1.791-1.791
							c0-0.989,0.802-1.791,1.791-1.791S301.233,101.745,301.233,102.734z"/>
					</g>
				</g>
			</g>
			<g>
				<g>
					<g>
						
							<linearGradient id="SVGID_00000020385573406345122490000003115671062410209701_" gradientUnits="userSpaceOnUse" x1="225.6141" y1="242.9764" x2="404.3307" y2="421.6931">
							<stop  offset="0.1303" style="stop-color:#0C5572"/>
							<stop  offset="1" style="stop-color:#094659"/>
						</linearGradient>
						<path style="fill:url(#SVGID_00000020385573406345122490000003115671062410209701_);" d="M412.502,229.572h-228.84
							c-6.679,0-12.094,5.415-12.094,12.094v147.556c0,6.679,5.415,12.094,12.094,12.094h228.84c6.679,0,12.094-5.415,12.094-12.094
							V241.666C424.596,234.987,419.181,229.572,412.502,229.572z"/>
						<path style="opacity:0.63;fill:#04303D;" d="M183.662,229.572c-6.679,0-12.094,5.415-12.094,12.094v109.705h32.235
							c21.14,0,38.339-17.199,38.339-38.339v-83.46H183.662z"/>
						
							<linearGradient id="SVGID_00000174573927473363923720000008400957940041979273_" gradientUnits="userSpaceOnUse" x1="384.0679" y1="410.6832" x2="222.388" y2="249.0033">
							<stop  offset="0.0826" style="stop-color:#E9FAFF"/>
							<stop  offset="1" style="stop-color:#FFFFFF"/>
						</linearGradient>
						<path style="fill:url(#SVGID_00000174573927473363923720000008400957940041979273_);" d="M183.662,394.393
							c-2.851,0-5.17-2.32-5.17-5.171v-129.05c0-2.851,2.32-5.17,5.17-5.17h228.84c2.851,0,5.171,2.319,5.171,5.17v129.05
							c0,2.851-2.32,5.171-5.171,5.171H183.662z"/>
					</g>
					<g>
						<g>
							
								<linearGradient id="SVGID_00000093170879604534963180000010757106913450092443_" gradientUnits="userSpaceOnUse" x1="324.5529" y1="294.2333" x2="266.1608" y2="235.8412">
								<stop  offset="0" style="stop-color:#491005"/>
								<stop  offset="1" style="stop-color:#8C210C"/>
							</linearGradient>
							<path style="fill:url(#SVGID_00000093170879604534963180000010757106913450092443_);" d="M324.215,276.763
								c0.03-2.614,0.35-5.214,0.847-7.781c1.368-7.078,4.994-27.469-12.019-36.219c-20.375-10.48-29.3,5.385-29.3,5.385
								s-20.212,4.364-12.981,30.515c1.024,3.703,1.694,7.497,1.815,11.337c0.092,2.91-0.013,6.222-0.619,9.17
								c-0.839,4.087,2.361,7.895,6.533,7.895h41.06c4.542,0,7.755-4.448,6.309-8.754
								C324.868,285.361,324.16,281.561,324.215,276.763z"/>
							<g>
								<path style="fill:#FFC392;" d="M250.256,394.559l17.092-61.185l-9.246-20.907c0,0-9.44,4.442-13.049,11.661
									c-2.217,4.433-8.411,42.053-12.862,70.431H250.256z"/>
								<path style="fill:#FFC392;" d="M363.973,394.559c-4.452-28.378-10.646-65.998-12.862-70.431
									c-3.609-7.219-13.049-11.661-13.049-11.661l-9.189,23.877l17.035,58.215H363.973z"/>
								<path style="fill:#FFC392;" d="M307.708,293.077v11.895h-18.077v-11.746c2.72,1.422,5.733,2.239,8.904,2.239
									C301.813,295.464,304.924,294.592,307.708,293.077z"/>
								<path style="fill:#F99F5D;" d="M289.631,293.216v6.012c8.349,2.238,15.344,0.972,18.077-4.331v-1.814
									c-2.785,1.511-5.893,2.382-9.172,2.382C295.36,295.464,292.348,294.641,289.631,293.216z"/>
								
									<linearGradient id="SVGID_00000075868626087439279240000008280470417247980727_" gradientUnits="userSpaceOnUse" x1="417.4282" y1="468.5864" x2="219.7658" y2="270.924">
									<stop  offset="0" style="stop-color:#52B0F7"/>
									<stop  offset="1" style="stop-color:#7DDCF9"/>
								</linearGradient>
								<path style="fill:url(#SVGID_00000075868626087439279240000008280470417247980727_);" d="M260.756,350.703
									c-1.189,5.737-0.682,11.696,1.458,17.15l3.043,7.754c1.478,3.767,1.956,14.774,1.391,18.952h62.866
									c-0.564-4.178-0.087-15.186,1.391-18.952l3.043-7.754c2.14-5.454,2.647-11.413,1.458-17.15l-1.825-8.806l4.479-29.43
									l-31.096-8.466h-17.769l-31.096,8.466l4.479,29.43L260.756,350.703z"/>
								
									<linearGradient id="SVGID_00000140732305406421782580000012937480787458242944_" gradientUnits="userSpaceOnUse" x1="248.5553" y1="299.7137" x2="384.2662" y2="435.4246">
									<stop  offset="0" style="stop-color:#FFBB12"/>
									<stop  offset="1" style="stop-color:#FF7212"/>
								</linearGradient>
								<path style="fill:url(#SVGID_00000140732305406421782580000012937480787458242944_);" d="M335.412,350.706
									c1.186,5.729,0.675,11.692-1.463,17.145l-3.046,7.754c-1.471,3.773-1.947,14.773-1.385,18.953h-62.875
									c0.571-4.18,0.087-15.18-1.393-18.953l-3.038-7.754c-2.138-5.452-2.64-11.415-1.454-17.145l1.826-8.81l-4.483-29.434
									l10.87-2.96l4.249-1.151l15.976-4.353h17.768l18.962,5.167l2.475,0.675l9.658,2.622l-4.474,29.434L335.412,350.706z"/>
							</g>
							<g>
								<path style="fill:#FFC392;" d="M288.217,253.629c-4.502-4.256-8.185,9.126-8.185,9.126v13.465
									c0,10.177,8.25,20.055,18.428,20.055c10.177,0,18.428-9.878,18.428-20.055v-15.226
									C316.887,260.994,301.283,265.983,288.217,253.629z"/>
								<path style="fill:#F99F5D;" d="M280.31,279.469c-0.015,0-0.029-0.005-0.044-0.007c-5.502-1.128-5.88-9.615-3.776-12.017
									c1.356-1.55,2.734-0.611,3.543,0.25v8.526C280.033,277.311,280.128,278.397,280.31,279.469z"/>
								<path style="fill:#F99F5D;" d="M316.612,279.449c0.181-1.064,0.275-2.146,0.275-3.229v-8.621
									c0.819-0.831,2.146-1.645,3.452-0.155C322.438,269.84,322.071,278.282,316.612,279.449z"/>
								<g>
									<path style="fill:#3B2823;" d="M294.63,267.595c-2.393-1.772-5.685-1.772-8.078,0c-0.451,0.333-0.556,0.888-0.282,1.145
										c0.03,0.03,0.06,0.06,0.089,0.089c0.274,0.259,0.745,0.216,1.082-0.031c1.866-1.382,4.434-1.382,6.299,0
										c0.337,0.247,0.808,0.291,1.082,0.031c0.03-0.03,0.06-0.06,0.089-0.089C295.186,268.483,295.081,267.928,294.63,267.595z"
										/>
								</g>
								<circle style="fill:#3B2823;" cx="290.381" cy="271.42" r="1.313"/>
								<g>
									<path style="fill:#3B2823;" d="M309.899,267.595c-2.393-1.772-5.685-1.772-8.078,0c-0.451,0.333-0.556,0.888-0.282,1.145
										c0.03,0.03,0.06,0.06,0.09,0.089c0.274,0.259,0.745,0.216,1.082-0.031c1.866-1.382,4.434-1.382,6.299,0
										c0.337,0.247,0.808,0.291,1.082,0.031c0.03-0.03,0.06-0.06,0.089-0.089C310.455,268.483,310.35,267.928,309.899,267.595z"
										/>
								</g>
								<path style="fill:#3B2823;" d="M307.057,271.42c0,0.725-0.588,1.313-1.314,1.313c-0.725,0-1.313-0.588-1.313-1.313
									s0.588-1.313,1.313-1.313C306.469,270.107,307.057,270.695,307.057,271.42z"/>
								<path style="fill:#F99F5D;" d="M300.336,280.668c0-0.626-1.003-1.767-2.241-1.767c-1.238,0-2.241,1.141-2.241,1.767
									c0,0.626,1.003,0.747,2.241,0.747C299.333,281.415,300.336,281.294,300.336,280.668z"/>
								<path style="fill:#3B2823;" d="M296.966,286.107c1.325,0.7,2.967,0.385,3.94-0.755c0.125-0.145,0.331-0.204,0.474-0.111l0,0
									c0.143,0.092,0.151,0.335-0.003,0.514c-1.16,1.359-3.119,1.735-4.7,0.9c-0.209-0.11-0.291-0.338-0.193-0.477l0,0
									C296.583,286.039,296.796,286.018,296.966,286.107z"/>
								<g style="opacity:0.35;">
									<path style="fill:#F99F5D;" d="M289.523,276.04c0-0.94-1.383-1.702-3.088-1.702c-1.706,0-3.088,0.762-3.088,1.702
										c0,0.94,1.383,1.703,3.088,1.703C288.141,277.742,289.523,276.98,289.523,276.04z"/>
									<path style="fill:#F99F5D;" d="M314.785,276.04c0-0.94-1.383-1.702-3.088-1.702c-1.706,0-3.088,0.762-3.088,1.702
										c0,0.94,1.383,1.703,3.088,1.703C313.402,277.742,314.785,276.98,314.785,276.04z"/>
								</g>
							</g>
							<path style="fill:#FFC392;" d="M328.402,309.84c-2.865,14.176-15.059,26.136-29.676,26.136
								c-14.739,0-27.019-12.151-29.754-26.474l4.249-1.151l15.976-4.353h17.768l18.962,5.167L328.402,309.84z"/>
						</g>
						<g>
							
								<ellipse transform="matrix(0.9729 -0.2311 0.2311 0.9729 -78.4689 79.031)" style="fill:#E51C1C;" cx="298.082" cy="374.433" rx="13.834" ry="13.834"/>
							<g>
								<path style="fill:#FFFFFF;" d="M300.645,379.29h-8.825c-0.375,0-0.679-0.304-0.679-0.679v-7.404
									c0-0.375,0.304-0.679,0.679-0.679h8.825c0.375,0,0.679,0.304,0.679,0.679v7.404
									C301.325,378.986,301.021,379.29,300.645,379.29z"/>
								<path style="fill:#FFFFFF;" d="M305.878,372.813l-2.54,0.421c-0.251,0.042-0.435,0.259-0.435,0.513v1.999
									c0,0.254,0.184,0.471,0.435,0.513l2.54,0.421c0.317,0.052,0.605-0.192,0.605-0.513v-2.841
									C306.482,373.004,306.194,372.76,305.878,372.813z"/>
							</g>
						</g>
					</g>
				</g>
				<g>
					<g>
						
							<linearGradient id="SVGID_00000155856277925253012290000009069033124188304559_" gradientUnits="userSpaceOnUse" x1="64.4619" y1="121.8605" x2="223.6277" y2="281.0263">
							<stop  offset="0.1303" style="stop-color:#0C5572"/>
							<stop  offset="1" style="stop-color:#094659"/>
						</linearGradient>
						<path style="fill:url(#SVGID_00000155856277925253012290000009069033124188304559_);" d="M203.803,92.379h-98.328
							c-10.307,0-18.663,8.356-18.663,18.663v201.99c0,10.307,8.356,18.663,18.663,18.663h98.328
							c10.307,0,18.663-8.356,18.663-18.663v-201.99C222.466,100.735,214.11,92.379,203.803,92.379z"/>
						
							<linearGradient id="SVGID_00000155108793717436695660000006285917613705010851_" gradientUnits="userSpaceOnUse" x1="246.7628" y1="304.1598" x2="84.8932" y2="142.2903">
							<stop  offset="0.0826" style="stop-color:#E9FAFF"/>
							<stop  offset="1" style="stop-color:#FFFFFF"/>
						</linearGradient>
						<path style="fill:url(#SVGID_00000155108793717436695660000006285917613705010851_);" d="M217.181,111.047v201.987
							c0,7.374-5.997,13.38-13.38,13.38h-98.324c-7.382,0-13.38-6.006-13.38-13.38V111.047c0-7.382,5.998-13.388,13.38-13.388
							h15.414l1.636,6.595c0.623,2.553,2.917,4.336,5.539,4.336h53.147c2.622,0,4.907-1.783,5.539-4.336l1.636-6.595h15.414
							C211.183,97.658,217.181,103.664,217.181,111.047z"/>
						
							<linearGradient id="SVGID_00000054237844960742457620000008997204197670549691_" gradientUnits="userSpaceOnUse" x1="121.7662" y1="64.5561" x2="280.9319" y2="223.7218">
							<stop  offset="0.1303" style="stop-color:#0C5572"/>
							<stop  offset="1" style="stop-color:#094659"/>
						</linearGradient>
						<path style="fill:url(#SVGID_00000054237844960742457620000008997204197670549691_);" d="M189.691,92.379h-70.105
							l2.938,11.876c0.63,2.547,2.915,4.336,5.539,4.336h53.152c2.623,0,4.909-1.789,5.539-4.336L189.691,92.379z"/>
					</g>
					<g>
						<g>
							<g>
								<defs>
									<path id="SVGID_00000168822652644195711940000000622022505301979321_" d="M217.181,111.047v201.987
										c0,7.374-5.997,13.38-13.38,13.38h-98.324c-7.382,0-13.38-6.006-13.38-13.38V111.047c0-7.382,5.998-13.388,13.38-13.388
										h15.414l1.636,6.595c0.623,2.553,2.917,4.336,5.539,4.336h53.147c2.622,0,4.907-1.783,5.539-4.336l1.636-6.595h15.414
										C211.183,97.658,217.181,103.664,217.181,111.047z"/>
								</defs>
								<clipPath id="SVGID_00000095340138432615820270000006383906332331947455_">
									<use xlink:href="#SVGID_00000168822652644195711940000000622022505301979321_"  style="overflow:visible;"/>
								</clipPath>
								<g style="clip-path:url(#SVGID_00000095340138432615820270000006383906332331947455_);">
									
										<linearGradient id="SVGID_00000008852812157315898710000016784537743345777852_" gradientUnits="userSpaceOnUse" x1="229.1203" y1="334.9167" x2="86.1934" y2="191.9898">
										<stop  offset="0" style="stop-color:#52B0F7"/>
										<stop  offset="1" style="stop-color:#7DDCF9"/>
									</linearGradient>
									<path style="fill:url(#SVGID_00000008852812157315898710000016784537743345777852_);" d="M235.98,241.353l-21.879-27.188
										c-2.908-3.613-6.927-6.166-11.434-7.261l-38.623-8.755h-20.433l-37.686,10.846c-5.981,1.711-10.797,6.155-12.984,11.978
										l-11.923,37.388l29.373,13.272l8.276-24.254l-3.912,79.079h80.96l-0.99-79.113l23.09,16.675L235.98,241.353z"/>
									
										<linearGradient id="SVGID_00000080166948339729194330000005994651113101990075_" gradientUnits="userSpaceOnUse" x1="273.7189" y1="276.5111" x2="246.1522" y2="177.3473">
										<stop  offset="0" style="stop-color:#F99F5D"/>
										<stop  offset="1" style="stop-color:#FFC392"/>
									</linearGradient>
									<path style="fill:url(#SVGID_00000080166948339729194330000005994651113101990075_);" d="M274.756,174.975
										c0,0,17.712-7.856,15.858-10.637c-1.168-1.752-19.42,6.441-19.42,6.441s12.307-8.535,10.637-9.913
										c-1.723-1.422-13.052,5.877-17.637,8.938c-1.102,0.736-2.566,0.589-3.499-0.353c-1.583-1.597-3.988-3.844-5.44-4.344
										c-2.307-0.793-3.761,3.036,1.302,9.38c1.87,2.343,2.928,6.782,3.329,8.734l-0.031-0.007l-23.827,58.091l-15.125,18.313
										c0,0,10.404,14.962,20.041,12.016c14.61-4.466,24.404-62.517,27.139-80.786c0.455-3.039,2.634-5.536,5.588-6.38
										c5.412-1.546,12.319-3.702,11.577-5.1c-0.897-1.689-9.856,0.39-9.856,0.39s15.906-5.562,15.175-7.661
										C289.936,170.292,274.756,174.975,274.756,174.975z"/>
									<g>
										
											<linearGradient id="SVGID_00000167354514874270611150000015129629714771036853_" gradientUnits="userSpaceOnUse" x1="154.2764" y1="185.4192" x2="154.2764" y2="202.8095">
											<stop  offset="0" style="stop-color:#F98C5D"/>
											<stop  offset="1" style="stop-color:#FFC392"/>
										</linearGradient>
										<path style="fill:url(#SVGID_00000167354514874270611150000015129629714771036853_);" d="M164.66,198.588v-22.548h-20.767
											v22.548C143.893,198.588,154.422,209.487,164.66,198.588z"/>
										<g>
											<g>
												
													<linearGradient id="SVGID_00000007429147635578952910000003327710900674882438_" gradientUnits="userSpaceOnUse" x1="179.0661" y1="171.2269" x2="126.365" y2="118.5258">
													<stop  offset="0" style="stop-color:#491005"/>
													<stop  offset="1" style="stop-color:#8C210C"/>
												</linearGradient>
												<path style="fill:url(#SVGID_00000007429147635578952910000003327710900674882438_);" d="M178,160.965
													c-0.341,0.546-1.419,0.935-3.006,1.202v-11.019c-3.772-2.577-5.062-9.938-5.062-9.938
													c-15.462,5.887-30.462,0.674-30.462,0.674c-2.027,2.76-6.169,8.526-6.169,8.526v9.542l-5.246-0.949
													c0,0-4.971-23.501,3.776-26.169c0,0,0.15-0.308,0.454-0.825c1.496-4.256,5.986-7.643,5.986-7.643l-2.207-0.92
													c7.914-5.341,17.852-4.417,17.852-4.417l-2.023-2.577c9.791,1.305,15.33,4.358,18.464,7.353
													c1.419,1.18,3.204,3.182,4.087,6.235c0,0,5.796,1.642,6.994,8.589C183.264,149.242,179.228,159.004,178,160.965z"/>
												
													<linearGradient id="SVGID_00000107548889777039771240000011819528899125594013_" gradientUnits="userSpaceOnUse" x1="187.2788" y1="193.8937" x2="146.2704" y2="152.8853">
													<stop  offset="0" style="stop-color:#F99F5D"/>
													<stop  offset="1" style="stop-color:#FFC392"/>
												</linearGradient>
												<path style="fill:url(#SVGID_00000107548889777039771240000011819528899125594013_);" d="M174.995,151.149v14.496
													c0,11.513-9.333,22.687-20.847,22.687c-11.513,0-20.847-11.174-20.847-22.687v-15.232c0,0,4.142-5.768,6.167-8.529
													c0,0,15.002,5.215,30.464-0.675C169.932,141.209,171.221,148.572,174.995,151.149z"/>
												<path style="fill:#F99F5D;" d="M133.615,169.32c-0.017,0-0.033-0.006-0.05-0.008
													c-6.225-1.276-6.652-10.877-4.272-13.595c1.534-1.753,3.093-0.691,4.008,0.283v9.645
													C133.302,166.879,133.41,168.108,133.615,169.32z"/>
												<path style="fill:#F99F5D;" d="M174.683,169.298c0.205-1.204,0.311-2.427,0.311-3.653v-9.753
													c0.926-0.94,2.427-1.861,3.906-0.175C181.274,158.427,180.858,167.978,174.683,169.298z"/>
												<g>
													
														<linearGradient id="SVGID_00000121962958698602125710000003431766770851276455_" gradientUnits="userSpaceOnUse" x1="144.5555" y1="166.9825" x2="144.5555" y2="146.2558">
														<stop  offset="0" style="stop-color:#491005"/>
														<stop  offset="1" style="stop-color:#8C210C"/>
													</linearGradient>
													<path style="fill:url(#SVGID_00000121962958698602125710000003431766770851276455_);" d="M148.814,153.958
														c0-0.499-0.388-0.914-0.887-0.943c-1.754-0.1-4.218-0.018-5.371,0.216c-1.382,0.281-2.336,1.352-2.254,2.518
														l0.021,0.299c0.001,0,0.001,0,0.001,0.001c2.364-1.188,5.504-1.309,7.468-1.15
														C148.343,154.943,148.814,154.511,148.814,153.958L148.814,153.958z"/>
													
														<linearGradient id="SVGID_00000143618987694143420060000004526593231934859195_" gradientUnits="userSpaceOnUse" x1="143.588" y1="158.4523" x2="147.3703" y2="158.4523">
														<stop  offset="0" style="stop-color:#491005"/>
														<stop  offset="1" style="stop-color:#8C210C"/>
													</linearGradient>
													<path style="fill:url(#SVGID_00000143618987694143420060000004526593231934859195_);" d="M147.37,158.452
														c0,1.044-0.847,1.891-1.891,1.891c-1.044,0-1.891-0.847-1.891-1.891s0.847-1.891,1.891-1.891
														C146.524,156.561,147.37,157.408,147.37,158.452z"/>
												</g>
												<g>
													
														<linearGradient id="SVGID_00000134221134815635593370000010148444284257470610_" gradientUnits="userSpaceOnUse" x1="163.3856" y1="166.9825" x2="163.3856" y2="146.2558">
														<stop  offset="0" style="stop-color:#491005"/>
														<stop  offset="1" style="stop-color:#8C210C"/>
													</linearGradient>
													<path style="fill:url(#SVGID_00000134221134815635593370000010148444284257470610_);" d="M159.127,153.958
														c0-0.499,0.388-0.914,0.887-0.943c1.754-0.1,4.218-0.018,5.372,0.216c1.382,0.281,2.336,1.352,2.254,2.518
														l-0.021,0.299c-0.001,0-0.001,0-0.001,0.001c-2.364-1.188-5.504-1.309-7.468-1.15
														C159.598,154.943,159.127,154.511,159.127,153.958L159.127,153.958z"/>
													
														<linearGradient id="SVGID_00000024707335177795331490000001528170618801278360_" gradientUnits="userSpaceOnUse" x1="160.5708" y1="158.4523" x2="164.3531" y2="158.4523">
														<stop  offset="0" style="stop-color:#491005"/>
														<stop  offset="1" style="stop-color:#8C210C"/>
													</linearGradient>
													<path style="fill:url(#SVGID_00000024707335177795331490000001528170618801278360_);" d="M160.571,158.452
														c0,1.044,0.847,1.891,1.891,1.891c1.044,0,1.891-0.847,1.891-1.891s-0.847-1.891-1.891-1.891
														C161.417,156.561,160.571,157.408,160.571,158.452z"/>
												</g>
												<path style="fill:#F97923;" d="M156.587,168.894c0,0.827-1.099,1.497-2.454,1.497s-2.454-0.67-2.454-1.497
													c0-0.826,1.099-0.359,2.454-0.359S156.587,168.068,156.587,168.894z"/>
												<path style="fill:#F97923;" d="M157.689,175.578c-0.2-0.105-0.444-0.027-0.546,0.172
													c-0.371,0.713-0.999,1.27-1.768,1.57c-0.008,0.003-0.014,0.01-0.022,0.014c-0.008,0.003-0.017,0.001-0.025,0.004
													c-0.769,0.299-1.607,0.313-2.363,0.039c-0.21-0.076-0.443,0.032-0.519,0.242c-0.077,0.211,0.032,0.443,0.242,0.519
													c0.45,0.164,0.923,0.245,1.398,0.245c0.518,0,1.039-0.097,1.535-0.29c0.008-0.003,0.013-0.01,0.021-0.013
													c0.008-0.003,0.017-0.002,0.026-0.005c0.952-0.37,1.73-1.063,2.191-1.95
													C157.964,175.925,157.887,175.681,157.689,175.578z"/>
											</g>
										</g>
									</g>
									
										<linearGradient id="SVGID_00000134961902080207283860000004819709267602762409_" gradientUnits="userSpaceOnUse" x1="130.761" y1="354.0213" x2="73.9675" y2="272.1331">
										<stop  offset="0" style="stop-color:#F99F5D"/>
										<stop  offset="1" style="stop-color:#FFC392"/>
									</linearGradient>
									<path style="fill:url(#SVGID_00000134961902080207283860000004819709267602762409_);" d="M79.873,294.977
										c0.878-8.197,5.538-34.859,5.538-34.859l23.265,10.774l-5.264,26.322l-0.862,42.02H84.937L79.873,294.977z"/>
								</g>
							</g>
							<g>
								
									<ellipse transform="matrix(0.3491 -0.9371 0.9371 0.3491 -182.5591 339.9366)" style="fill:#E51C1C;" cx="153.42" cy="301.382" rx="13.834" ry="13.834"/>
								<g>
									<path style="fill:#FFFFFF;" d="M155.984,306.239h-8.825c-0.375,0-0.679-0.304-0.679-0.679v-7.404
										c0-0.375,0.304-0.679,0.679-0.679h8.825c0.375,0,0.679,0.304,0.679,0.679v7.404
										C156.663,305.935,156.359,306.239,155.984,306.239z"/>
									<path style="fill:#FFFFFF;" d="M161.216,299.761l-2.54,0.421c-0.251,0.042-0.435,0.258-0.435,0.513v1.999
										c0,0.254,0.184,0.471,0.435,0.513l2.54,0.421c0.317,0.052,0.605-0.192,0.605-0.513v-2.841
										C161.82,299.953,161.533,299.709,161.216,299.761z"/>
								</g>
							</g>
						</g>
						<g>
							
								<linearGradient id="SVGID_00000165936470894379886580000008387756725227448985_" gradientUnits="userSpaceOnUse" x1="270.2377" y1="293.7995" x2="127.3102" y2="150.8721">
								<stop  offset="0" style="stop-color:#52B0F7"/>
								<stop  offset="1" style="stop-color:#7DDCF9"/>
							</linearGradient>
							<polygon style="fill:url(#SVGID_00000165936470894379886580000008387756725227448985_);" points="235.978,241.357 
								217.812,264.023 217.181,263.495 217.181,217.99 							"/>
							
								<linearGradient id="SVGID_00000003104295503370742320000011690107760836632739_" gradientUnits="userSpaceOnUse" x1="273.7189" y1="276.5111" x2="246.1522" y2="177.3473">
								<stop  offset="0" style="stop-color:#F99F5D"/>
								<stop  offset="1" style="stop-color:#FFC392"/>
							</linearGradient>
							<path style="fill:url(#SVGID_00000003104295503370742320000011690107760836632739_);" d="M274.756,174.975
								c0,0,17.712-7.856,15.858-10.637c-1.168-1.752-19.42,6.441-19.42,6.441s12.307-8.535,10.637-9.913
								c-1.723-1.422-13.052,5.877-17.637,8.938c-1.102,0.736-2.566,0.589-3.499-0.353c-1.583-1.597-3.988-3.844-5.44-4.344
								c-2.307-0.793-3.761,3.036,1.302,9.38c1.87,2.343,2.928,6.782,3.329,8.734l-0.031-0.007l-23.827,58.091l-15.125,18.313
								c0,0,10.404,14.962,20.041,12.016c14.61-4.466,24.404-62.517,27.139-80.786c0.455-3.039,2.634-5.536,5.588-6.38
								c5.412-1.546,12.319-3.702,11.577-5.1c-0.897-1.689-9.856,0.39-9.856,0.39s15.906-5.562,15.175-7.661
								C289.936,170.292,274.756,174.975,274.756,174.975z"/>
						</g>
					</g>
				</g>
			</g>
		</g>
	</g>
</g>
</svg>
